<svg width="158" height="158" viewBox="0 0 158 158" fill="none" xmlns="http://www.w3.org/2000/svg">
<circle cx="79" cy="79" r="79" fill="#FFCD38"/>
<circle cx="80.0729" cy="79.8224" r="60.0729" fill="#F6F9FF"/>
<path d="M93.351 86.4011H90.275L89.1848 85.3478C93.0005 80.9004 95.2978 75.1266 95.2978 68.8456C95.2978 54.8401 83.9674 43.4875 69.9893 43.4875C56.0113 43.4875 44.6809 54.8401 44.6809 68.8456C44.6809 82.851 56.0113 94.2036 69.9893 94.2036C76.258 94.2036 82.0206 91.9019 86.4593 88.0787L87.5106 89.171V92.253L106.979 111.72L112.78 105.907L93.351 86.4011ZM69.9893 86.4011C60.2943 86.4011 52.4681 78.5597 52.4681 68.8456C52.4681 59.1315 60.2943 51.29 69.9893 51.29C79.6844 51.29 87.5106 59.1315 87.5106 68.8456C87.5106 78.5597 79.6844 86.4011 69.9893 86.4011Z" fill="#702F87"/>
</svg>
