<svg width="90" height="48" viewBox="0 0 90 48" fill="none" xmlns="http://www.w3.org/2000/svg">
<g clip-path="url(#clip0)">
<path d="M0.920166 23.6977V47.0593H45.4533H89.9864V23.6977V0.336067H45.4533H0.920166V23.6977ZM27.0328 13.2252V15.8434H24.4013H21.7698V26.2151V36.5869H19.037H16.3043V26.2151V15.8434H13.5716H10.8389V13.2252V10.6071H18.9358H27.0328V13.2252ZM39.4615 16.7093C42.1133 18.0184 43.9351 20.3546 44.5424 23.2345C44.846 24.6644 44.927 26.8394 44.7246 27.9068L44.6031 28.5311H37.6397C31.1015 28.5311 30.6966 28.5513 30.8181 28.8735C31.1217 29.7395 32.0124 30.6256 33.0852 31.109C35.0892 32.0354 38.0648 31.6729 39.502 30.3235L39.9069 29.9409L41.5667 31.6326C42.4777 32.559 43.2266 33.4049 43.2266 33.5257C43.2266 33.8278 41.8704 34.8347 40.6558 35.4591C39.0972 36.2244 37.498 36.5869 35.5345 36.5869C31.3849 36.5869 28.1056 34.7341 26.385 31.4312C25.4539 29.6589 25.13 28.2492 25.1502 26.1144C25.1502 21.4824 27.7817 17.6962 31.9921 16.1857C32.8018 15.9038 33.4901 15.8434 35.4536 15.9038C37.8422 15.9642 37.9636 15.9843 39.4615 16.7093ZM57.3962 18.4615V21.0796H54.9672H52.5381V28.8332V36.5869H49.8054H47.0727V26.2151V15.8434H52.2345H57.3962V18.4615ZM71.2622 16.2663C71.8695 16.4878 72.659 16.9107 72.9828 17.1927L73.5901 17.6962V16.7698V15.8434H76.3228H79.0555V26.2151V36.5869H76.3228H73.5901V35.6605V34.7542L72.9424 35.2577C71.8493 36.0632 70.7359 36.4258 68.9344 36.5265C65.7563 36.7278 63.2868 35.8216 61.1613 33.7069C59.1168 31.693 58.2059 29.3367 58.2059 26.1547C58.2059 21.5428 60.8982 17.676 65.1693 16.2059C66.6875 15.6822 69.7845 15.7024 71.2622 16.2663Z" fill="black"/>
<path d="M33.3078 20.9991C32.3969 21.4019 31.5467 22.1873 31.0609 23.1339L30.6763 23.8992H35.0486C38.9554 23.8992 39.4007 23.8589 39.2995 23.5769C39.2388 23.3957 39.178 23.1742 39.178 23.0936C39.178 22.7311 37.8825 21.4422 37.1336 21.0595C36.1822 20.5963 34.3199 20.556 33.3078 20.9991Z" fill="black"/>
<path d="M67.1533 21.261C65.129 21.9659 63.874 23.7784 63.874 26.0139C63.874 27.6049 64.1574 28.5515 64.9469 29.5584C65.8578 30.7466 67.0926 31.3307 68.6917 31.3508C70.7564 31.3508 72.2746 30.4446 73.2462 28.632C73.8737 27.4841 73.8737 24.9465 73.2462 23.7784C72.6187 22.5902 71.3637 21.5631 70.1289 21.2006C68.7929 20.7978 68.469 20.7978 67.1533 21.261Z" fill="black"/>
</g>
<defs>
<clipPath id="clip0">
<rect width="89.0662" height="46.7233" fill="white" transform="translate(0.920166 0.335938)"/>
</clipPath>
</defs>
</svg>
