<svg width="158" height="158" viewBox="0 0 158 158" fill="none" xmlns="http://www.w3.org/2000/svg">
<circle cx="79" cy="79" r="79" fill="#FFCD38"/>
<circle cx="80.5682" cy="78.2762" r="60.1487" fill="#F6F9FF"/>
<path d="M92.2263 41.6184H64.9711C60.2696 41.6184 56.4539 45.366 56.4539 49.9836V106.867C56.4539 111.484 60.2696 115.232 64.9711 115.232H92.2263C96.9279 115.232 100.744 111.484 100.744 106.867V49.9836C100.744 45.366 96.9279 41.6184 92.2263 41.6184ZM78.5987 111.886C75.771 111.886 73.4884 109.644 73.4884 106.867C73.4884 104.089 75.771 101.848 78.5987 101.848C81.4265 101.848 83.7091 104.089 83.7091 106.867C83.7091 109.644 81.4265 111.886 78.5987 111.886ZM93.9298 98.5015H63.2677V51.6566H93.9298V98.5015Z" fill="#702F87"/>
</svg>
