<?xml version="1.0" encoding="UTF-8" standalone="no"?>
<svg
   xmlns:dc="http://purl.org/dc/elements/1.1/"
   xmlns:cc="http://creativecommons.org/ns#"
   xmlns:rdf="http://www.w3.org/1999/02/22-rdf-syntax-ns#"
   xmlns:svg="http://www.w3.org/2000/svg"
   xmlns="http://www.w3.org/2000/svg"
   xmlns:sodipodi="http://sodipodi.sourceforge.net/DTD/sodipodi-0.dtd"
   xmlns:inkscape="http://www.inkscape.org/namespaces/inkscape"
   width="158"
   height="158"
   viewBox="0 0 158 158"
   fill="none"
   version="1.1"
   id="svg913"
   sodipodi:docname="ui-icon.svg"
   inkscape:version="1.0.2 (e86c8708, 2021-01-15)">
  <metadata
     id="metadata919">
    <rdf:RDF>
      <cc:Work
         rdf:about="">
        <dc:format>image/svg+xml</dc:format>
        <dc:type
           rdf:resource="http://purl.org/dc/dcmitype/StillImage" />
      </cc:Work>
    </rdf:RDF>
  </metadata>
  <defs
     id="defs917" />
  <sodipodi:namedview
     pagecolor="#ffffff"
     bordercolor="#666666"
     borderopacity="1"
     objecttolerance="10"
     gridtolerance="10"
     guidetolerance="10"
     inkscape:pageopacity="0"
     inkscape:pageshadow="2"
     inkscape:window-width="937"
     inkscape:window-height="737"
     id="namedview915"
     showgrid="false"
     showguides="true"
     inkscape:guide-bbox="true"
     inkscape:zoom="1.4925324"
     inkscape:cx="62.596842"
     inkscape:cy="123.68258"
     inkscape:window-x="469"
     inkscape:window-y="260"
     inkscape:window-maximized="0"
     inkscape:current-layer="svg913">
    <sodipodi:guide
       position="79.730265,131.86991"
       orientation="1,0"
       id="guide1502" />
    <sodipodi:guide
       position="135.34045,78.939737"
       orientation="0,-1"
       id="guide1504" />
  </sodipodi:namedview>
  <circle
     cx="79"
     cy="79"
     r="79"
     fill="#355094"
     id="circle907" />
  <circle
     cx="80.5682"
     cy="78.2762"
     r="60.1487"
     fill="#F6F9FF"
     id="circle909" />
  <path
     d="m 46.044969,56.487457 h 66.746671 v -7.4163 H 46.044969 c -4.078959,0 -7.416291,3.337334 -7.416291,7.4163 v 44.497863 c 0,4.07891 3.337332,7.41625 7.416291,7.41625 h 14.832624 v -7.41625 H 46.044969 Z M 83.126495,78.736425 H 68.293836 v 6.600391 c -2.261858,2.039539 -3.708036,4.9319 -3.708036,8.232095 0,3.300366 1.446178,6.192555 3.708036,8.232099 v 6.60056 h 14.832659 v -6.60056 c 2.262028,-2.039544 3.708206,-4.968872 3.708206,-8.232099 0,-3.263057 -1.446178,-6.192556 -3.708206,-8.232095 z m -7.416244,20.39471 c -3.077879,0 -5.562225,-2.484345 -5.562225,-5.562224 0,-3.077709 2.484346,-5.562222 5.562225,-5.562222 3.077707,0 5.562225,2.484513 5.562225,5.562222 0,3.077879 -2.484518,5.562224 -5.562225,5.562224 z M 116.49985,63.903746 H 94.250944 c -1.854016,0 -3.708206,1.854032 -3.708206,3.708223 v 37.081381 c 0,1.85419 1.85419,3.70822 3.708206,3.70822 h 22.248906 c 1.85401,0 3.70803,-1.85403 3.70803,-3.70822 V 67.611969 c 0,-1.854191 -1.85402,-3.708223 -3.70803,-3.708223 z m -3.70821,37.081574 H 97.959153 V 71.320011 h 14.832487 z"
     fill="#355094"
     id="path833"
     style="stroke-width:1.71145" />
</svg>
